<?xml version="1.0" encoding="utf-8"?>
<!-- Generator: Adobe Illustrator 19.2.1, SVG Export Plug-In . SVG Version: 6.00 Build 0)  -->
<svg version="1.1" id="layer" xmlns="http://www.w3.org/2000/svg" xmlns:xlink="http://www.w3.org/1999/xlink" x="0px" y="0px"
	 viewBox="12 120 616 400" style="enable-background:new 0 0 652 652;" xml:space="preserve">
<style type="text/css">
	.st0{fill:#E41F18;}
	.st1{fill:#B2B2B2;}
	.st2{fill:#686868;}
</style>
<g>
	<g>
		<polygon class="st0" points="107.7,225.2 79.5,273.7 50.7,225.2 21.7,225.2 66.6,296.1 66.6,347.6 91.2,347.6 91.2,296.3
			136.2,225.2 		"/>
		<g>
			<path class="st0" d="M113.1,302c0-7.8,1.9-15.3,5.8-22.6c3.8-7.3,9.3-12.9,16.3-16.7c7-3.8,14.9-5.8,23.6-5.8
				c13.4,0,24.4,4.4,33,13.1c8.6,8.7,12.9,19.7,12.9,33c0,13.4-4.3,24.5-13,33.4c-8.7,8.8-19.6,13.2-32.7,13.2
				c-8.1,0-15.9-1.8-23.3-5.5c-7.4-3.7-13-9.1-16.8-16.2C115.1,320.9,113.1,312.2,113.1,302 M137.2,303.3c0,8.8,2.1,15.5,6.3,20.2
				c4.2,4.7,9.3,7,15.4,7c6.1,0,11.3-2.3,15.4-7c4.1-4.7,6.2-11.5,6.2-20.4c0-8.7-2.1-15.4-6.2-20c-4.1-4.7-9.3-7-15.4-7
				c-6.1,0-11.3,2.3-15.4,7C139.3,287.8,137.2,294.5,137.2,303.3"/>
			<path class="st0" d="M271.2,347.6v-13.3c-3.2,4.7-7.5,8.5-12.7,11.2c-5.3,2.7-10.8,4.1-16.7,4.1c-6,0-11.3-1.3-16-3.9
				c-4.7-2.6-8.2-6.3-10.3-11c-2.1-4.7-3.2-11.3-3.2-19.6V259h23.5v40.8c0,12.5,0.4,20.1,1.3,22.9c0.9,2.8,2.4,5,4.7,6.7
				c2.3,1.6,5.2,2.5,8.7,2.5c4,0,7.6-1.1,10.8-3.3c3.2-2.2,5.3-4.9,6.5-8.2c1.2-3.3,1.8-11.2,1.8-23.9V259h23.5v88.7H271.2z"/>
			<path class="st1" d="M364.1,302.6V282h53.3v48.8c-5.2,5-12.7,9.4-22.5,13.2c-9.8,3.8-19.8,5.7-29.9,5.7c-12.8,0-24-2.7-33.5-8.1
				c-9.5-5.4-16.7-13-21.5-23c-4.8-10-7.2-20.9-7.2-32.6c0-12.7,2.7-24.1,8-34c5.3-9.9,13.2-17.5,23.5-22.8
				c7.8-4.1,17.6-6.1,29.3-6.1c15.2,0,27.1,3.2,35.6,9.6c8.5,6.4,14,15.2,16.5,26.4l-24.5,4.6c-1.7-6-5-10.8-9.7-14.2
				c-4.8-3.5-10.7-5.2-17.8-5.2c-10.8,0-19.4,3.4-25.8,10.3c-6.4,6.9-9.6,17-9.6,30.5c0,14.5,3.2,25.4,9.7,32.7
				c6.5,7.3,14.9,10.9,25.4,10.9c5.2,0,10.4-1,15.6-3c5.2-2,9.7-4.5,13.4-7.4v-15.5H364.1z"/>
			<path class="st1" d="M424.3,302c0-7.8,1.9-15.3,5.8-22.6c3.8-7.3,9.3-12.9,16.3-16.7c7-3.8,14.9-5.8,23.6-5.8
				c13.4,0,24.4,4.4,33,13.1c8.6,8.7,12.9,19.7,12.9,33c0,13.4-4.3,24.5-13,33.4c-8.7,8.8-19.6,13.2-32.7,13.2
				c-8.1,0-15.9-1.8-23.3-5.5c-7.4-3.7-13-9.1-16.8-16.2C426.2,320.9,424.3,312.2,424.3,302 M448.4,303.3c0,8.8,2.1,15.5,6.3,20.2
				c4.2,4.7,9.3,7,15.4,7c6.1,0,11.3-2.3,15.4-7c4.1-4.7,6.2-11.5,6.2-20.4c0-8.7-2.1-15.4-6.2-20c-4.1-4.7-9.3-7-15.4-7
				c-6.1,0-11.3,2.3-15.4,7C450.5,287.8,448.4,294.5,448.4,303.3"/>
			<path class="st1" d="M548.3,347.6L512.6,259h24.6l16.7,45.3l4.8,15.1c1.3-3.8,2.1-6.4,2.4-7.6c0.8-2.5,1.6-5,2.5-7.5l16.9-45.3
				h24.1l-35.2,88.7H548.3z"/>
			<path class="st1" d="M609.9,230.4c2,0,3.9,0.5,5.8,1.5c1.9,1,3.4,2.5,4.4,4.4c1.1,1.9,1.6,3.9,1.6,6c0,2-0.5,4-1.6,5.9
				c-1,1.9-2.5,3.4-4.4,4.4c-1.9,1-3.8,1.6-5.9,1.6c-2.1,0-4-0.5-5.9-1.6c-1.9-1-3.4-2.5-4.4-4.4c-1-1.9-1.6-3.9-1.6-5.9
				c0-2.1,0.5-4.1,1.6-6c1.1-1.9,2.5-3.4,4.4-4.4C605.9,230.9,607.9,230.4,609.9,230.4 M609.9,232.4c-1.7,0-3.3,0.4-4.9,1.3
				c-1.6,0.9-2.8,2.1-3.7,3.7c-0.9,1.6-1.3,3.2-1.3,5c0,1.7,0.4,3.4,1.3,4.9c0.9,1.6,2.1,2.8,3.7,3.7c1.6,0.9,3.2,1.3,4.9,1.3
				c1.7,0,3.4-0.4,4.9-1.3c1.6-0.9,2.8-2.1,3.7-3.7c0.9-1.6,1.3-3.2,1.3-4.9c0-1.7-0.4-3.4-1.3-5c-0.9-1.6-2.1-2.8-3.7-3.7
				C613.1,232.8,611.5,232.4,609.9,232.4 M604.7,248.8v-12.8h4.4c1.5,0,2.6,0.1,3.3,0.4c0.7,0.2,1.2,0.6,1.6,1.2
				c0.4,0.6,0.6,1.2,0.6,1.9c0,0.9-0.3,1.7-1,2.4c-0.7,0.7-1.6,1.1-2.7,1.2c0.5,0.2,0.8,0.4,1.1,0.7c0.5,0.5,1.1,1.4,1.9,2.5
				l1.6,2.5h-2.5l-1.1-2c-0.9-1.6-1.6-2.6-2.2-3c-0.4-0.3-0.9-0.4-1.6-0.4h-1.2v5.4H604.7z M606.7,241.7h2.5c1.2,0,2-0.2,2.5-0.5
				c0.4-0.4,0.6-0.8,0.6-1.4c0-0.4-0.1-0.7-0.3-1c-0.2-0.3-0.5-0.5-0.9-0.7c-0.4-0.1-1.1-0.2-2.1-0.2h-2.3V241.7z"/>
			<path class="st2" d="M77.2,419.6l-11.1-41.7h5.7l6.3,27.3c0.7,2.9,1.3,5.7,1.8,8.5c1.1-4.5,1.7-7,1.9-7.7l7.9-28.2h6.7l6,21.1
				c1.5,5.2,2.6,10.2,3.2,14.8c0.5-2.6,1.2-5.7,2.1-9.1l6.5-26.8h5.5l-11.4,41.7H103l-8.8-31.8c-0.7-2.7-1.2-4.3-1.3-4.9
				c-0.4,1.9-0.8,3.6-1.2,4.9l-8.8,31.8H77.2z"/>
			<path class="st2" d="M123.1,419.6v-41.7h5.1v15c2.4-2.8,5.4-4.1,9-4.1c2.2,0,4.2,0.4,5.8,1.3c1.6,0.9,2.8,2.1,3.5,3.7
				c0.7,1.6,1.1,3.8,1.1,6.8v19.1h-5.1v-19.1c0-2.6-0.6-4.4-1.7-5.6c-1.1-1.2-2.7-1.7-4.7-1.7c-1.5,0-2.9,0.4-4.3,1.2
				c-1.3,0.8-2.3,1.9-2.9,3.2c-0.6,1.3-0.9,3.2-0.9,5.6v16.5H123.1z"/>
			<path class="st2" d="M175.2,415.9c-1.9,1.6-3.7,2.7-5.5,3.4c-1.7,0.7-3.6,1-5.6,1c-3.3,0-5.9-0.8-7.7-2.4
				c-1.8-1.6-2.7-3.7-2.7-6.2c0-1.5,0.3-2.8,1-4.1c0.7-1.2,1.6-2.2,2.6-2.9c1.1-0.7,2.3-1.3,3.7-1.7c1-0.3,2.5-0.5,4.5-0.8
				c4.1-0.5,7.2-1.1,9.1-1.8c0-0.7,0-1.1,0-1.3c0-2.1-0.5-3.6-1.4-4.4c-1.3-1.2-3.3-1.7-5.8-1.7c-2.4,0-4.2,0.4-5.3,1.3
				c-1.2,0.8-2,2.3-2.5,4.5l-5-0.7c0.5-2.1,1.2-3.9,2.2-5.2c1-1.3,2.6-2.3,4.5-3c2-0.7,4.3-1.1,6.9-1.1c2.6,0,4.7,0.3,6.3,0.9
				c1.6,0.6,2.8,1.4,3.6,2.3c0.8,0.9,1.3,2.1,1.6,3.5c0.2,0.9,0.3,2.4,0.3,4.7v6.8c0,4.8,0.1,7.8,0.3,9c0.2,1.3,0.6,2.5,1.3,3.6
				h-5.4C175.7,418.5,175.3,417.3,175.2,415.9 M174.8,404.4c-1.9,0.8-4.6,1.4-8.4,1.9c-2.1,0.3-3.6,0.6-4.5,1
				c-0.9,0.4-1.5,0.9-2,1.7c-0.5,0.7-0.7,1.5-0.7,2.4c0,1.4,0.5,2.5,1.6,3.4c1,0.9,2.5,1.4,4.5,1.4c2,0,3.7-0.4,5.3-1.3
				c1.5-0.9,2.7-2,3.4-3.5c0.5-1.2,0.8-2.9,0.8-5.1V404.4z"/>
			<path class="st2" d="M200.2,415l0.7,4.5c-1.4,0.3-2.7,0.5-3.9,0.5c-1.9,0-3.3-0.3-4.3-0.9c-1-0.6-1.7-1.4-2.2-2.3
				c-0.4-1-0.6-3-0.6-6v-17.4h-3.8v-4h3.8v-7.5l5.1-3.1v10.6h5.1v4h-5.1V411c0,1.5,0.1,2.4,0.3,2.8c0.2,0.4,0.5,0.8,0.9,1
				c0.4,0.3,1,0.4,1.7,0.4C198.5,415.2,199.3,415.2,200.2,415"/>
			<path class="st2" d="M232.6,415l0.7,4.5c-1.4,0.3-2.7,0.5-3.9,0.5c-1.9,0-3.3-0.3-4.3-0.9c-1-0.6-1.7-1.4-2.2-2.3
				c-0.4-1-0.6-3-0.6-6v-17.4h-3.8v-4h3.8v-7.5l5.1-3.1v10.6h5.1v4h-5.1V411c0,1.5,0.1,2.4,0.3,2.8c0.2,0.4,0.5,0.8,0.9,1
				c0.4,0.3,1,0.4,1.7,0.4C230.9,415.2,231.7,415.2,232.6,415"/>
			<path class="st2" d="M237.6,419.6v-41.7h5.1v15c2.4-2.8,5.4-4.1,9-4.1c2.2,0,4.2,0.4,5.8,1.3c1.6,0.9,2.8,2.1,3.5,3.7
				c0.7,1.6,1.1,3.8,1.1,6.8v19.1h-5.1v-19.1c0-2.6-0.6-4.4-1.7-5.6c-1.1-1.2-2.7-1.7-4.7-1.7c-1.5,0-2.9,0.4-4.3,1.2
				c-1.3,0.8-2.3,1.9-2.9,3.2c-0.6,1.3-0.9,3.2-0.9,5.6v16.5H237.6z"/>
			<path class="st2" d="M290.7,409.9l5.3,0.6c-0.8,3.1-2.4,5.5-4.6,7.2c-2.3,1.7-5.1,2.6-8.6,2.6c-4.4,0-7.9-1.4-10.5-4.1
				c-2.6-2.7-3.9-6.5-3.9-11.4c0-5.1,1.3-9,3.9-11.8c2.6-2.8,6-4.2,10.2-4.2c4,0,7.3,1.4,9.9,4.1c2.6,2.8,3.8,6.6,3.8,11.6
				c0,0.3,0,0.8,0,1.4h-22.5c0.2,3.3,1.1,5.9,2.8,7.6c1.7,1.8,3.8,2.6,6.3,2.6c1.9,0,3.5-0.5,4.8-1.5
				C288.8,413.6,289.9,412,290.7,409.9 M273.8,401.6h16.9c-0.2-2.5-0.9-4.4-1.9-5.7c-1.6-2-3.7-3-6.3-3c-2.3,0-4.3,0.8-5.9,2.4
				C274.9,396.9,274,399,273.8,401.6"/>
			<path class="st2" d="M324.1,419.6l-9.2-30.2h5.3l4.8,17.4l1.8,6.5c0.1-0.3,0.6-2.4,1.6-6.2l4.8-17.7h5.3l4.5,17.5l1.5,5.8
				l1.7-5.8l5.2-17.5h5l-9.4,30.2h-5.3l-4.8-18.1l-1.2-5.1l-6.1,23.2H324.1z"/>
			<path class="st2" d="M358.7,404.5c0-5.6,1.6-9.7,4.7-12.4c2.6-2.2,5.8-3.4,9.5-3.4c4.1,0,7.5,1.4,10.2,4.1
				c2.6,2.7,3.9,6.5,3.9,11.3c0,3.9-0.6,6.9-1.7,9.2c-1.2,2.2-2.9,4-5.1,5.2c-2.2,1.2-4.7,1.8-7.3,1.8c-4.2,0-7.7-1.4-10.3-4.1
				C360,413.5,358.7,409.6,358.7,404.5 M364,404.5c0,3.9,0.8,6.8,2.5,8.7c1.7,1.9,3.8,2.9,6.4,2.9c2.5,0,4.7-1,6.3-2.9
				c1.7-1.9,2.5-4.9,2.5-8.8c0-3.7-0.8-6.6-2.5-8.5c-1.7-1.9-3.8-2.9-6.3-2.9c-2.6,0-4.7,1-6.4,2.9C364.8,397.7,364,400.6,364,404.5
				"/>
			<path class="st2" d="M392.9,419.6v-30.2h4.6v4.6c1.2-2.1,2.3-3.6,3.3-4.2c1-0.7,2.1-1,3.3-1c1.7,0,3.5,0.6,5.3,1.6l-1.8,4.7
				c-1.3-0.7-2.5-1.1-3.8-1.1c-1.1,0-2.1,0.3-3,1c-0.9,0.7-1.5,1.6-1.9,2.8c-0.6,1.8-0.9,3.8-0.9,6v15.8H392.9z"/>
			<rect x="412.3" y="377.9" class="st2" width="5.1" height="41.7"/>
			<path class="st2" d="M444.9,419.6v-3.8c-1.9,3-4.7,4.5-8.4,4.5c-2.4,0-4.6-0.7-6.6-2c-2-1.3-3.6-3.2-4.7-5.6
				c-1.1-2.4-1.7-5.1-1.7-8.2c0-3,0.5-5.8,1.5-8.2c1-2.5,2.5-4.3,4.5-5.6c2-1.3,4.3-2,6.7-2c1.8,0,3.4,0.4,4.9,1.2
				c1.4,0.8,2.6,1.8,3.5,3v-15h5.1v41.7H444.9z M428.8,404.5c0,3.9,0.8,6.8,2.4,8.7c1.6,1.9,3.6,2.9,5.8,2.9c2.2,0,4.1-0.9,5.7-2.7
				c1.6-1.8,2.3-4.6,2.3-8.4c0-4.1-0.8-7.2-2.4-9.1c-1.6-1.9-3.6-2.9-5.9-2.9c-2.3,0-4.2,0.9-5.7,2.8
				C429.5,397.6,428.8,400.5,428.8,404.5"/>
			<path class="st2" d="M485.1,415l0.7,4.5c-1.4,0.3-2.7,0.5-3.9,0.5c-1.9,0-3.3-0.3-4.3-0.9c-1-0.6-1.7-1.4-2.2-2.3
				c-0.4-1-0.6-3-0.6-6v-17.4h-3.8v-4h3.8v-7.5l5.1-3.1v10.6h5.1v4h-5.1V411c0,1.5,0.1,2.4,0.3,2.8c0.2,0.4,0.5,0.8,0.9,1
				c0.4,0.3,1,0.4,1.8,0.4C483.4,415.2,484.2,415.2,485.1,415"/>
			<path class="st2" d="M490.1,419.6v-41.7h5.1v15c2.4-2.8,5.4-4.1,9-4.1c2.2,0,4.2,0.4,5.8,1.3c1.6,0.9,2.8,2.1,3.5,3.7
				c0.7,1.6,1.1,3.8,1.1,6.8v19.1h-5.1v-19.1c0-2.6-0.5-4.4-1.7-5.6c-1.1-1.2-2.7-1.7-4.7-1.7c-1.5,0-2.9,0.4-4.3,1.2
				c-1.3,0.8-2.3,1.9-2.9,3.2c-0.6,1.3-0.8,3.2-0.8,5.6v16.5H490.1z"/>
			<path class="st2" d="M522.5,377.9h5.1v5.9h-5.1V377.9z M522.5,389.4h5.1v30.2h-5.1V389.4z"/>
			<path class="st2" d="M535.4,419.6v-30.2h4.6v4.3c2.2-3.3,5.4-5,9.6-5c1.8,0,3.5,0.3,5,1c1.5,0.7,2.7,1.5,3.4,2.6
				c0.8,1.1,1.3,2.3,1.6,3.8c0.2,0.9,0.3,2.6,0.3,5v18.6h-5.1v-18.4c0-2.1-0.2-3.6-0.6-4.7c-0.4-1-1.1-1.9-2.1-2.5
				c-1-0.6-2.2-0.9-3.6-0.9c-2.2,0-4.1,0.7-5.6,2.1c-1.6,1.4-2.4,4-2.4,7.9v16.5H535.4z"/>
			<polygon class="st2" points="567.9,419.6 567.9,377.9 573,377.9 573,401.7 585.1,389.4 591.7,389.4 580.2,400.6 592.9,419.6
				586.6,419.6 576.6,404.2 573,407.6 573,419.6 			"/>
			<path class="st2" d="M594.9,410.6l5.1-0.8c0.3,2,1.1,3.6,2.4,4.7c1.3,1.1,3.1,1.6,5.4,1.6c2.3,0,4.1-0.5,5.2-1.4
				c1.1-1,1.7-2.1,1.7-3.4c0-1.2-0.5-2.1-1.5-2.7c-0.7-0.5-2.5-1-5.2-1.7c-3.8-0.9-6.4-1.8-7.8-2.5c-1.5-0.7-2.5-1.7-3.3-2.9
				s-1.1-2.6-1.1-4.1c0-1.3,0.3-2.6,0.9-3.7c0.6-1.2,1.5-2.1,2.5-2.9c0.8-0.6,1.9-1.1,3.3-1.5c1.4-0.4,2.8-0.6,4.4-0.6
				c2.4,0,4.5,0.3,6.2,1c1.8,0.7,3.1,1.6,4,2.8c0.8,1.2,1.4,2.7,1.8,4.7l-5,0.7c-0.2-1.6-0.9-2.8-2-3.6c-1.1-0.9-2.6-1.3-4.6-1.3
				c-2.4,0-4,0.4-5,1.2c-1,0.8-1.5,1.7-1.5,2.7c0,0.7,0.2,1.3,0.6,1.8c0.4,0.5,1.1,1,2,1.4c0.5,0.2,2,0.6,4.5,1.3
				c3.6,1,6.1,1.8,7.6,2.4c1.4,0.6,2.6,1.5,3.4,2.7c0.8,1.2,1.2,2.6,1.2,4.4c0,1.7-0.5,3.3-1.5,4.8c-1,1.5-2.4,2.7-4.3,3.5
				c-1.9,0.8-4,1.2-6.4,1.2c-3.9,0-6.9-0.8-9-2.5C596.8,416.2,595.5,413.8,594.9,410.6"/>
		</g>
	</g>
</g>
</svg>
