<?xml version="1.0" encoding="utf-8"?>
<!-- Generator: Adobe Illustrator 19.0.0, SVG Export Plug-In . SVG Version: 6.00 Build 0)  -->
<svg version="1.1" id="layer" xmlns="http://www.w3.org/2000/svg" xmlns:xlink="http://www.w3.org/1999/xlink" x="0px" y="0px"
	 viewBox="-100 -5 500 550" style="enable-background:new -153 -46 652 652;" xml:space="preserve">
<style type="text/css">
	.st0{fill:#C00F23;}
	.st1{fill:#1D1D1B;}
</style>
<path class="st0" d="M152.3,102.9l-1.4,0.2c-1.9,2.8-3.3,5.8-4.2,9c0.4,0.3,0.9,0.5,1.3,0.7C149.2,109.3,150.6,106,152.3,102.9
	 M157.4,113.2c1-2.6,3.6-8.7,4.5-10.3c-0.9-0.2-1.7-0.3-2.6-0.3c-1.5,2.5-4.3,8.9-5,10.6C155.3,113.3,156.3,113.2,157.4,113.2
	 M151.7,113.3c1.4-3.7,3-7.3,5-10.7c0,0-1.6,0-2.2,0.1c-2,3.4-3.7,6.9-5.1,10.6C149.4,113.2,150,113.5,151.7,113.3 M231.3,280
	c4.1,1.8,6.8,10.6-2.1,14.7c4.5-11.5-13.1-22-31.4-11c0.6-0.8,1.2-1.5,1.8-2.2c19.1-12.2,50.5,1.5,62.5-16.3
	c0.7,4.6-3.6,11.1-13.1,12.9c9.9,1.2,14.9,6,21.7,7.4C264.1,285.6,247.6,277,231.3,280 M168.7,300.3
	c-32.1-19.9-46.3-62.1-48.1-109.1c4-0.4,13.1-1.2,23.5-1.8c0.1,25.1,2.6,56.1,14.8,88.5c-1.2-18.1-2.9-54.6-2.5-89.1
	c4.1-0.1,8.2-0.2,12.1-0.1l0.2-0.2l0.2,0.2c18.2-0.3,40.9,1.8,47.9,2.5C215,238.2,200.8,280.4,168.7,300.3 M108.7,295
	c-8.9-4-6.2-12.8-2.1-14.7c-16.3-3-32.8,5.6-39.4,5.4c6.7-1.3,11.8-6.2,21.7-7.4c-9.4-1.8-13.8-8.3-13.1-12.9
	c12,17.7,43,4.3,62.2,16.1c0.6,0.8,1.2,1.5,1.8,2.3C121.6,273,104.2,283.5,108.7,295 M120.9,161.9c5.8-0.9,14.5-1.9,23.7-2.5
	c-0.1,5.3-0.3,11.2-0.5,17.6c-9.1,0.6-17.3,1.4-23.8,2.1C120.4,173.4,120.6,167.7,120.9,161.9 M131.9,143.2
	c3.9-4.4,12.6-8.3,16.9-12.6c1.4,3.6,2.2,7.4,2.4,11.3c-1.6,2.1-7.1,3.4-8.9,6.5c-0.3,1.5-0.4,2.9-0.4,4.4l-3.4,0.3
	c2.2-3.6-0.6-6.7-4.2-7.7c0.5,3.6-1.3,5.5-2.5,5.8C129.2,150.4,129.7,145.7,131.9,143.2 M145.4,121.4c-2.4-0.7-4.1-4.7-3.1-7.2
	c0.5-0.5,1.4-0.6,2.2-1.3c1.4-1.3,1.3-7.7,8.2-13.8c5.1-1.1,12.4-1.5,16.4-0.9c0.4,0.3,5.2,2.1,6.2,17.6c3.5-0.4,6.9-1,10.3-2
	C178.4,119.7,147,121.8,145.4,121.4 M150.7,90.1c2.4-0.6,4.8-0.6,7.2-0.1c1.3-0.5,5-0.9,7.2-0.1c3.3-0.8,7.5-0.5,9.1,0.1
	c2-0.9,5.9-0.5,7.5,0.1c5.9-1.4,9,1.5,9,3.4c0,1.3-0.4,1.7-1.1,2.1c-2.4,1.3-1.7-2.4-6.9-3.6c2.2,1.1,2.4,3.6,4.9,4.1
	c-8.4,1.3-6.7-5.2-12.8-5.2c2.6,0.8,3,3.9,5.5,5.1c-8.6,0.9-7.8-5.5-14.2-5.3c3.1,0.9,3.4,4.1,6.7,5.2c-9.1,1.2-7.6-5.6-14.4-5.1
	c3.2,1.4,3.8,4.1,6.8,4.9c-8.5,2.3-8.2-4.8-13.8-4.2c2.5,0.6,3.6,3.5,5.6,4.3c-4.8,1.8-4.6-2.2-8.7-2.2c1.6,0.6,2.2,1.9,3.7,2.6
	C144.3,97.4,145.3,89.5,150.7,90.1 M183,107.7c1,0,1.9,0.9,1.8,1.9c0,1-0.9,1.9-1.9,1.8c-1,0-1.8-0.9-1.8-1.9
	C181.1,108.5,181.9,107.6,183,107.7C183,107.7,183,107.7,183,107.7 M192.6,144.8c-2.9-0.2-3.2,0.4-4.8,0.8c-4-6-4.5-16.8-0.8-23.3
	C186.7,130.4,187.9,141.9,192.6,144.8 M205.6,143.2c2.2,2.5,2.7,7.2,0.1,7.9c-1.2-0.2-3-2.1-2.5-5.8c-1.2,0.3-2.3,0.9-3.2,1.6
	c-1.2-1.2-2.7-1.9-4.3-2c-3.4-3.6-4.7-8.2-5-12.7C195.3,136,202.3,139.5,205.6,143.2 M198.2,150.3c0,1,0.2,1.9,0.7,2.7
	c-3.3-0.3-6.4-0.5-9.5-0.7C192.1,150.8,195.2,150.1,198.2,150.3 M182.9,143.6c-3.9-3.1-7-14-3.2-22c0.8-2.2,3.4-3.5,3.1-1.7
	C180.7,126.7,180.9,137.5,182.9,143.6 M150.9,156.2c3.5-6.7,4.3-15.9-0.5-28.8c3.6,3.4,5.8,12.3,6.2,16.7c1.2-1.7,1.7-7,1.2-10.5
	c2.8,11.2,0.7,26.7-2.1,29.1c-1.8-0.9-3.2-3-4.3-4.7c0.7,2.4,1.9,4.7,3.6,6.6c17.8-6,30.7-20.5,40.9-16.7c-5.6,0.3-9.8,2.9-13.7,6.5
	c-6-0.9-10.6,10.5-29.4,16.2c-2.4-1.5-4.9-9-5.9-11.7c-0.9-2.7-1.8-3.3-3.1-3.3c-0.4-2.2-0.3-4.5,0.5-6.7c0,0,1.4-1.5,5.2-2.8
	C149.5,149.5,150,152.9,150.9,156.2 M216.5,162c0.3,5.8,0.5,11.5,0.6,17.2c-11.9-1.2-29.9-3-48.4-3.1c-4.1,0-8.1,0.1-12.1,0.3
	c0-1.4,0.1-2.9,0.1-4.3c10.1-3.4,17.8-10.5,22.6-13.4C191.8,159.2,204.2,160.3,216.5,162 M109.2,156.6c0,5.1,0,9.9,0,14.5
	c-0.7-2.3-2.3-4.8-5.4-7.4c-3,14.7-19.2,14.7-26.8,5.6c2.9-11.5,17.2-17.9,31.3-21.4c0.4,3.8,1.7,6.5,3.6,8.3L109.2,156.6
	 M99.5,184.5c2.6-0.2,8.4-3.7,9.8-8.8c0.1,7.4,0.2,14.5,0.5,21.6C108.2,193,105,188.6,99.5,184.5 M229.2,147.9
	c14.2,3.5,28.4,9.9,31.3,21.4c-7.6,9.1-23.8,9.1-26.8-5.6c-3.1,2.6-4.8,5.1-5.4,7.4c0-4.6,0-9.4,0-14.5l-2.6-0.4
	C227.5,154.4,228.8,151.7,229.2,147.9 M227.7,197.4c0.4-7.1,0.5-14.2,0.5-21.6c1.4,5.1,7.2,8.5,9.8,8.8
	C232.4,188.6,229.3,193,227.7,197.4 M278.9,284c3.4-2.7,5.5-6.6,5.9-10.9c-10.5,9.1-25.5,4.9-25.5,4.9s17.5-5.8,3.1-25.5
	c0.9,18-18.2,20.3-32.6,20.3c-10.4,0-20.1,1.2-26.9,4.1c12.1-17.3,19.8-36.2,21.9-50.5c0.7-5,1.3-9.8,1.7-14.4l0.1,0.5
	c1.3,7.4,4.2,10.7,16.8,16c12.6,5.2,11.8,13.5,5.3,18.5c9.7,2.8,16.6-11.9,6.1-25.2c1-0.9,5.5-7.1-0.5-14.7
	c-3.1,5.7-10.1,7.6-14.5,6.7c9.3,4.4,13.8-1.7,14.6-2.7c2.5,5.9-0.7,10.7-3.6,10.8c5.2,4,8.7,8.6,7.5,16c-0.9-5.4-13.3-10-19.7-13.7
	c-5-2.9-8-10.8-0.9-14.9s14.1-7.2,19.6-12.7c0.9,3.8,4.7,12.5,18.9,16.7c-16.1-23.8,6.2-24.9-4.8-46.6
	c-1.8,20.7-30.6,25.6-30.6,25.6c24-9.6,31.6-23.7,27.2-37.7c-2.9-9.3-11.8-18.4-31.1-24.7c3.8-0.8,6.5-1.8,8.4-3.6
	c-11.4,2.7-14.6,2.3-19.5,1.6c23.6,6.5,35.8,14.6,38.2,25.6c1.2,5.4,0.3,10-1.8,13.6c-4.3-14.3-26.6-20.3-34.8-21.9
	c0,4.6-1.9,7.5-4.7,9.3l-14.5-2.3c1.7-2.1,2.3-4.8,1.6-7.4c-1.1-4.7-5.9-10.5-19.2-19.8c0.1-1.1,0.2-2.2,0.3-3.3
	c5.9,4.7,17.3,10.7,27.5,13.5c-8.1-3.5-20.9-10-27.2-16.4c0-0.2,0.1-0.5,0.1-0.7c0.1-0.8,0.1-1.6,0.2-2.4
	c11.7,8.8,21.7,10.8,25.4,10.8c-5.7-1.5-28-11.8-38.7-28.6c2.3,0.1,4.7,0.2,6.9,0.2c4.1,6.2,9.4,11.7,15.4,16.1
	c-4.8-4.6-8.7-10.1-11.2-16.2h-0.1c2-0.4,3.5-2.1,3.5-4.2c0-1.8-0.9-5.8-10.8-5.2h-0.5c-3.5-1.1-7.1-1.7-10.7-1.8
	c-0.5-2.9-2.7-4.2-3.9,0c-3.1,0.3-6.3,0.9-9.3,1.7c-2.2-0.2-5-0.2-6.9,0.4c-4.4,0.3-6,2.5-6.1,4.8c-0.1,2.4,1.8,4.4,4.2,4.5
	c-1.5,2.3-7.1,10.9-12,16.1c3.4-2.1,7.7-6.3,7.7-6.3l0.4-0.7c-0.5,1.7-0.9,3.2-1.3,4.1c-0.7,0.6-1.5,1-2.4,1.3
	c-0.2,0.1-1.4,0.6-1.5,1.5v0.4c-7,8-33.5,20.4-44.4,25.6c12-5,27.6-9.7,44.5-22.3c0.1,0.8,0.3,1.6,0.6,2.4
	c-6.1,6.1-15.1,11.1-20.7,15c8.5-3.4,16.5-9.3,21.9-12.9c0.3,0.4,0.7,0.7,1.1,0.9c0.7,0.2,1.3,0.3,2,0.3c0.5,0.5,1,1.1,1.4,1.7
	c-12.7,8.9-17.4,14.7-18.5,19.3c-0.7,2.6-0.1,5.5,1.7,7.5l-14.4,2.2c-2.8-1.7-4.8-4.7-4.8-9.4c-8.2,1.6-30.6,7.6-34.8,21.9
	c-2.1-3.6-2.9-8.2-1.8-13.6c2.4-10.9,14.6-19,38.2-25.6c-4.9,0.7-8.1,1.1-19.5-1.6c2,1.8,4.6,2.8,8.4,3.6
	c-19.3,6.3-28.2,15.5-31.1,24.7c-4.4,14,3.2,28.1,27.1,37.6c0,0-28.7-4.9-30.6-25.6c-11,21.8,11.3,22.8-4.8,46.6
	c14.2-4.2,18-12.9,18.9-16.7c5.4,5.5,12.5,8.7,19.6,12.7c7.1,4,4.2,12-0.9,14.9c-6.4,3.7-19.4,8.7-19.6,13.9
	c-1.3-7.5,2.3-12.3,7.5-16.3c-3,0-6.2-4.9-3.7-10.8c0.8,1,5.3,7.1,14.6,2.7c-4.5,1-11.4-1-14.5-6.7c-6,7.6-1.5,13.9-0.5,14.7
	c-1.8,2.3-8.6,11.8-3.3,21.3c1.2,2.1,4.6,5.5,9.3,3.9c-6.4-5-7.2-13.3,5.3-18.6c12.6-5.2,15.4-8.5,16.8-16l0.1-0.4
	c0.4,4.6,1,9.4,1.7,14.4c2.1,14.3,9.9,33.4,22.1,50.7c-6.8-2.8-16.3-4-26.6-4c-14.5,0-33.5-2.3-32.6-20.3
	c-14.4,19.6,3.1,25.5,3.1,25.5s-15,4.2-25.5-4.9c0.4,4.3,2.5,8.3,5.9,11c-1.3,0.2-16.2,2.1-24.1-10.4c5,30.9,51.9,14.6,59.2,10.9
	c-3,2.8-9,10.6-3,16.1c0.2-7.7,8.4-11.7,10.5-12.1c1,4.8,5.2,7.8,9.1,8.7c-0.9-5.2-0.2-13.6,17-12.7c8.3,0.4,16.4,6,23.2,11.3
	l0.6,0.5c5.3,5.1,11.1,9.6,17.4,13.5c6.2-3.8,12-8.3,17.2-13.3l1.1-0.9l23.2-11.3c17.2-0.9,17.9,7.5,17,12.7
	c3.9-0.9,8.1-3.9,9.1-8.7c2.1,0.4,10.3,4.4,10.5,12.1c5.9-5.5-0.1-13.3-3-16.1c7.3,3.7,54.1,20,59.2-10.9
	C295.1,286,280.3,284,278.9,284 M216.3,120.1c-5.7-0.7-8.8-1.7-12.7-3.9c11.2,8.8,28.2,11.2,44.3,8.2c7-1.3,17.7-0.8,24.2,2.4
	c-2.1-4-12.9-11.3-18.4-12.1c6.7-10.7,1.8-18.4,12.7-25.2c-1.9-1.9-8.5-3.1-13.4,0.2c-2.2-2.6-6.6-6.4-12.9-7.1
	c-7.5-0.8-12.8,0.7-17.5,7.2c6.3-7.1,19.2-8.6,27.4-0.9c-13.1-6.4-22.3,6.2-23.1,19.9c-3.5-4.6-5.3-11.8-5.2-14
	c-4.7,0.5-8.9,4.5-9.3,11.1c-1.7-2.3-6.4-15.1,2.6-21.5c-2.6-3-3.5-6.4-2.7-8.6c5.8,3.5,14.6,2.5,24.1,4.8
	c-9.3-5.6-19.3-2.1-26.4-8.7c-1.6,4.2,0.1,8.7,2.3,12.2c-9.9,11-2.6,25.2,2.1,27.8c-0.6-5,1.3-11,5.5-13.2c1,7.1,7.2,13.8,8.3,15.6
	c0.1-3.5,1.3-17.7,6.4-17.3c3.1,0.3,5.5,6.2,4.4,10.4C237.5,113.3,233.1,122,216.3,120.1 M163.7,112.5c0.7-1.4,2-5.6,3-8.9l-2.5-0.4
	c-1.4,3.4-3.7,8.9-4,9.8C161.5,112.9,162.6,112.7,163.7,112.5 M89.5,124.3c16.1,3,33.1,0.6,44.3-8.2c-3.9,2.3-6.9,3.3-12.7,3.9
	c-16.8,1.9-21.2-6.8-22.8-12.5c-1.1-4.2,1.3-10.2,4.4-10.4c5.1-0.4,6.3,13.8,6.4,17.3c1-1.8,7.3-8.5,8.3-15.6
	c4.2,2.2,6.1,8.2,5.5,13.2c4.7-2.6,12-16.9,2.1-27.8c2.2-3.5,3.9-8,2.3-12.2c-7.1,6.6-17.1,3.1-26.4,8.7c9.6-2.3,18.3-1.3,24.1-4.8
	c0.8,2.3-0.1,5.6-2.7,8.6c9,6.3,4.3,19.2,2.6,21.5c-0.3-6.6-4.6-10.6-9.3-11.1c0.1,2.2-1.7,9.4-5.2,14c-0.8-13.7-10-26.3-23.1-19.9
	c8.2-7.8,21.1-6.2,27.4,0.9c-4.7-6.5-10.1-8-17.5-7.2c-6.3,0.7-10.6,4.5-12.9,7.1c-4.9-3.4-11.4-2.1-13.4-0.2
	c10.9,6.8,6,14.5,12.7,25.2c-5.5,0.8-16.3,8.1-18.4,12.1C71.7,123.5,82.5,123,89.5,124.3 M173.7,116c-4.6,0.4-16.7,1.8-25.6,0.9
	c-1.4-0.7-2.6-1.7-3.4-3c0.1,1.8,0.7,3.5,1.8,4.9C150.8,119.4,170.7,117.6,173.7,116 M159.9,59c0.6,5.9,3.5,9.1,4.9,8.5
	s-1.5-11.9,5-17.6c-3,6.2,0,11.2,1.1,17c0.7,3.9-0.5,9.7-2.4,10.8C166.4,78.8,157.7,72.6,159.9,59 M155.7,72.5
	c1.4,5.6,6.5,9.6,13,10.1c3.2,0.3,8.7-1.7,9.4-7.5c-5.5,2-2.7-3,1.1-5c3.8-2,7.2-7.7,3.3-14.5c-0.9,7.5-8.6,10.8-7.7,6.5
	c0.6-3,9.6-13.4,3-25.4c-0.9,3.6-0.7,7.1-3.7,6.4c-3-0.7-6.5-12.9-0.8-18.1c-6.2,0.7-10.5,8-9.7,13.1c0.8,5,3.3,11.3,0,13.2
	c-1.9,1.1-3.2,0.3-3.5-1.3c-0.7-2.9,0.2-8.6-5.6-10.6C158.4,47.2,152.9,61.2,155.7,72.5"/>
<path class="st1" d="M94,363.4h-1.6c-0.5-0.9-1.3-2.3-2.4-3.9c-1.3-1.9-3-3.6-4.9-4.9c-2.7-1.8-5.7-3.2-8.8-4.2
	c-3.7-1.2-8.3-1.8-14-1.8c-13.2,0-23.2,4.1-30.1,12.3c-6.8,8.2-10.2,19.8-10.2,34.8c0,1.4,0.1,3.3,0.2,5.7c0.1,2.7,0.5,5.4,1,8.1
	c0.6,3.2,1.6,6.4,2.8,9.4c1.4,3.5,3.3,6.7,5.6,9.7c1.4,1.9,3,3.7,4.8,5.4c1.9,1.7,4,3.3,6.2,4.6c2.4,1.4,5.1,2.5,7.8,3.2
	c3.2,0.8,6.4,1.2,9.7,1.2c4.3,0.1,8.6-0.5,12.8-1.6c6.6-1.9,12.6-5.3,17.5-10c2.1-2,4.1-4.1,6-6.3l1.7,1.1l-1.7,15.6
	c-12,6.6-25.2,9.9-39.8,9.9c-7.4,0-14.7-1.2-21.7-3.5c-6.6-2.2-12.7-5.8-17.9-10.4C12,432.9,7.8,427,5.1,420.5
	c-3-6.8-4.5-14.6-4.5-23.5c-0.1-7.6,1.2-15.1,3.7-22.2c2.4-6.8,6.2-13,11.2-18.1c5-5.1,11.4-9.2,19.1-12.2c7.7-3,16.8-4.5,27.3-4.5
	c6.2,0,12.5,0.6,18.6,1.8c6.3,1.3,12.4,3.4,18.3,6L94,363.4z"/>
<path class="st1" d="M118.6,377.7c0-5-0.1-10.4-0.2-16.2c-0.1-5.8-0.6-12.5-1.4-20.1c1.5,0.2,3.4,0.4,5.8,0.6s4.2,0.3,5.4,0.3
	c1.8,0,3.7-0.1,5.5-0.3l5.7-0.6c-0.4,2.9-0.8,6.7-1,11.2c-0.3,4.6-0.4,9.4-0.5,14.6c-0.1,5.1-0.2,10.3-0.2,15.3v13.6
	c0,11.7,0.1,22,0.3,30.6c0.2,8.7,0.6,16.2,1.3,22.6c-1.8-0.1-3.6-0.3-5.5-0.5c-1.8-0.3-3.7-0.4-5.5-0.4c-1.9,0-3.8,0.1-5.7,0.4
	c-2,0.3-3.9,0.4-5.7,0.5c0.8-9.4,1.3-20.4,1.5-32.7C118.5,404.2,118.6,391.3,118.6,377.7z"/>
<path class="st1" d="M201.6,427.8c0,6,0.1,10.5,0.4,13.6c0.3,3.1,0.5,5.7,0.7,7.9l-6.8-0.6c-2.2-0.2-3.8-0.3-4.7-0.3
	c-1.4,0-2.8,0.1-4.2,0.2l-6.5,0.7c0.3-6,0.7-12,1-18c0.4-6,0.6-12,0.6-18l-0.2-43.9c0-2.9,0-5.8-0.1-8.7c-0.1-2.8-0.1-5.8-0.3-8.8
	h-7.9c-0.3,0-1.4,0-3.3,0.1c-1.9,0.1-4.1,0.1-6.5,0.2c-2.5,0.1-5,0.2-7.7,0.3c-2.7,0.2-5,0.3-7,0.5c1-3.8,1-7.8,0-11.6
	c3.1,0.2,6.5,0.4,10.1,0.5l11,0.3c3.7,0.1,7.4,0.2,10.9,0.2h9.9c6.6,0,13.4-0.1,20.3-0.2c6.9-0.1,14.2-0.4,21.7-0.8
	c-0.4,2-0.7,4-0.8,6c0,0.8,0.1,1.7,0.2,2.5c0.2,0.8,0.3,1.9,0.5,3.1c-4.7-0.5-9.8-0.8-15.1-0.9c-5.4-0.1-10.8-0.2-16.2-0.2
	c-0.1,2.8-0.2,5.7-0.2,8.7c0,2.9-0.1,5.9-0.1,9V427.8L201.6,427.8z"/>
<path class="st1" d="M299.2,413c0,3.4,0,6.4,0.1,9.2c0.1,2.8,0.1,5.6,0.2,8.4c0.1,2.8,0.2,5.7,0.3,8.7c0.1,3,0.3,6.3,0.5,10
	l-5.5-0.6c-1.8-0.2-3.6-0.3-5.5-0.3c-1.8,0-3.6,0.1-5.4,0.3c-2,0.2-3.7,0.4-5.2,0.6c0.1-3,0.2-6.5,0.3-10.5
	c0.1-3.9,0.2-7.9,0.3-11.8c0.1-3.9,0.2-7.7,0.2-11.3c0.1-3.6,0.1-6.6,0.1-9l-9.3-16c-2-3.5-4.3-7.3-6.8-11.6
	c-2.6-4.3-5.2-8.7-7.9-13.1c-2.7-4.4-5.3-8.7-7.9-13c-2.6-4.2-4.9-8.1-6.9-11.6c2.9,0.3,5.4,0.5,7.3,0.7c1.9,0.2,3.8,0.2,5.6,0.2
	c1.9,0,3.9-0.1,6.1-0.2c2.3-0.1,4.5-0.4,6.8-0.8c2,4.3,3.9,8.4,5.8,12.3c1.9,3.9,3.9,7.9,6,12c2.1,4.1,4.4,8.5,7,13.1
	c2.5,4.7,5.5,9.9,8.9,15.8c3.4-5.8,6.2-10.6,8.4-14.6c2.2-3.9,4.2-7.7,6-11.3c1.8-3.6,3.7-7.5,5.7-11.7c1.9-4.2,4.3-9.4,7.2-15.6
	c1.3,0.2,2.6,0.4,4.2,0.6c1.6,0.2,3.3,0.3,5,0.3c1.3,0,2.6-0.1,3.9-0.2c0.9-0.1,1.9-0.4,2.8-0.7l-3.2,5.4c-1.5,2.5-3.1,5.2-4.9,7.9
	c-1.7,2.8-3.4,5.4-4.9,7.9c-1.5,2.5-2.6,4.2-3.2,5.1c-3.6,5.7-6.9,11.4-10.1,17.2c-3.1,5.8-6.4,11.6-9.8,17.2
	c-0.5,0.9-1,1.8-1.4,2.7c-0.4,0.7-0.6,1.5-0.6,2.4L299.2,413L299.2,413z"/>
<path class="st1" d="M14.6,468.6c0-1,0-2-0.1-3l0.6,0.1c0.2,0,0.4,0,0.6,0c0.3,0,0.6-0.1,0.9-0.1c-0.1,0.7-0.1,1.5-0.2,2.4
	c-0.1,0.9-0.1,1.9-0.1,3c0,1.1-0.1,2.2-0.1,3.3c0,1.1-0.1,2.2-0.1,3.3c0,1.2-0.2,2.3-0.6,3.5c-0.3,1-0.9,1.8-1.6,2.6
	c-0.7,0.7-1.6,1.3-2.5,1.6c-1.1,0.4-2.3,0.6-3.5,0.5c-2.9,0-5-0.7-6.3-2c-1.3-1.3-2-3.4-2-6.2c0-0.9,0-1.7,0.1-2.4
	c0-0.7,0.1-1.4,0.1-2.1c0-1.6,0-3-0.1-4.3c0-1.2-0.1-2.3-0.1-3.2c0.2,0,0.5,0.1,0.8,0.1c0.2,0,0.5,0,0.8,0c0.2,0,0.4,0,0.6,0
	l0.6-0.1c0,0.4-0.1,1-0.1,1.7c0,0.7-0.1,1.5-0.1,2.3c0,0.9-0.1,1.8-0.1,2.8c0,1,0,2,0,3.1c0,0.7,0,1.3,0,2c0,0.7,0.1,1.3,0.2,2
	c0.1,0.7,0.3,1.3,0.6,1.9c0.3,0.6,0.6,1.1,1.1,1.6c0.5,0.5,1.1,0.8,1.8,1.1c0.9,0.3,1.8,0.4,2.7,0.4c0.9,0,1.8-0.1,2.7-0.5
	c0.7-0.3,1.3-0.7,1.8-1.2c0.5-0.5,0.8-1.1,1.1-1.7c0.3-0.6,0.4-1.3,0.6-2c0.1-0.7,0.2-1.4,0.2-2.1c0-0.7,0-1.4,0-2
	C14.6,472.2,14.6,470.1,14.6,468.6z"/>
<path class="st1" d="M31.2,477.9c-2.5-2.7-5-5.3-7.5-8c0,0.5,0,1.3-0.1,2.2c0,0.9,0,2.1,0,3.7c0,0.4,0,0.9,0,1.5c0,0.6,0,1.2,0,1.9
	c0,0.7,0,1.3,0,2c0,0.7,0,1.3,0.1,1.9s0,1.1,0.1,1.5s0,0.7,0.1,0.9c-0.3,0-0.7-0.1-1-0.1c-0.4,0-0.7,0-1.1,0.1
	c0-0.2,0.1-0.5,0.1-1.1c0-0.5,0.1-1.1,0.1-1.9c0-0.7,0.1-1.5,0.1-2.3c0-0.8,0.1-1.7,0.1-2.5c0-0.8,0.1-1.7,0.1-2.5
	c0-0.8,0-1.5,0-2.2c0-1.8,0-3.4,0-4.7c0-1.3,0-2.3,0-3h0.5l3.8,4.1c1.3,1.4,2.7,2.9,4,4.3l3.7,4c1.2,1.3,2.2,2.3,3.1,3.2v-3.9
	c0-2,0-4,0-5.9c0-1.9-0.1-3.7-0.2-5.4c0.3,0.1,0.6,0.1,1,0.1c0.3,0,0.6-0.1,0.9-0.1c0,0.4-0.1,1.1-0.1,1.9c0,0.8-0.1,1.7-0.1,2.7
	c0,1-0.1,1.9-0.1,2.8c0,0.9-0.1,1.7-0.1,2.2v1.7c0,0.7,0,1.3,0,2c0,0.7,0,1.4,0,2.1c0,0.7,0,1.4,0,2s0,1.2,0,1.6v1h-0.4
	C36,483.1,33.7,480.5,31.2,477.9z"/>
<path class="st1" d="M44.4,469.3c0-1.2-0.1-2.5-0.2-3.7l0.7,0.1c0.5,0.1,0.9,0.1,1.4,0l0.7-0.1c-0.1,1.3-0.1,2.5-0.2,3.7
	c0,1.2-0.1,2.5-0.1,3.7v4.9c0,1.3,0,2.5,0.1,3.7c0,1.2,0.1,2.4,0.2,3.6c-0.4,0-0.9-0.1-1.4-0.1s-1,0-1.4,0.1
	c0.1-1.2,0.1-2.4,0.2-3.6c0-1.2,0.1-2.5,0.1-3.7V473C44.4,471.7,44.4,470.5,44.4,469.3z"/>
<path class="st1" d="M56.5,481.3c-0.6-1.6-1.3-3.3-2-5c-0.7-1.8-1.4-3.6-2.2-5.4c-0.8-1.8-1.5-3.6-2.2-5.2l0.8,0.1
	c0.5,0.1,1,0.1,1.4,0l0.8-0.1c0.4,1.3,0.9,2.6,1.4,4c0.5,1.4,1,2.8,1.6,4.2c0.6,1.4,1.1,2.9,1.7,4.4c0.6,1.5,1.2,2.9,1.8,4.4
	c0.3-0.8,0.7-1.7,1.1-2.6c0.4-1,0.8-2,1.2-3c0.4-1,0.8-2.1,1.2-3.2l1.2-3.1c0.4-1,0.7-1.9,1-2.8c0.3-0.9,0.6-1.6,0.8-2.2
	c0.7,0.2,1.4,0.2,2.1,0c-1.5,3.3-2.9,6.6-4.3,9.9c-1.4,3.3-2.7,6.6-4,9.8c-0.3,0-0.6-0.1-1-0.1c-0.3,0-0.6,0-1,0.1
	C57.7,484.2,57.2,482.8,56.5,481.3z"/>
<path class="st1" d="M71.6,469.2c0-1.2-0.1-2.5-0.2-3.7l2.6,0.1c0.9,0,1.7,0,2.6,0c0.9,0,1.7,0,2.6,0l2.6-0.1
	c-0.1,0.6-0.1,1.2,0,1.7l-1.7-0.1l-1.6-0.1c-0.6,0-1.2-0.1-1.9-0.1s-1.5,0-2.4,0c0,0.6,0,1.2-0.1,1.8s-0.1,1.2,0,1.9
	c0,0.7,0,1.5,0,2.2c0,0.7,0,1.2,0,1.6c0.8,0,1.6,0,2.3,0c0.7,0,1.3,0,1.8-0.1l1.5-0.1c0.5,0,0.9-0.1,1.3-0.1
	c-0.1,0.3-0.1,0.6-0.1,0.9c0,0.3,0,0.6,0.1,0.9c-0.5-0.1-1.1-0.1-1.7-0.1c-0.7,0-1.3-0.1-2-0.1h-1.9H74c0,0.2,0,0.4,0,0.6
	c0,0.2,0,0.5,0,0.8v2.8c0,1.1,0,2,0,2.7c0,0.7,0,1.2,0,1.6h2c0.7,0,1.4,0,2.1,0c0.7,0,1.4-0.1,2-0.1c0.5,0,1.1-0.1,1.6-0.2
	c0,0.1-0.1,0.3-0.1,0.4c0,0.2,0,0.3,0,0.4c0,0.3,0,0.5,0.1,0.8c-0.9,0-1.7-0.1-2.6-0.1H74c-0.9,0-1.7,0-2.6,0.1
	c0.1-1.2,0.1-2.5,0.2-3.7c0-1.2,0.1-2.5,0.1-3.8V473C71.6,471.7,71.6,470.5,71.6,469.2z"/>
<path class="st1" d="M85.9,469.3c0-1.2-0.1-2.5-0.2-3.7l1.6,0.1c0.5,0,1.1,0,1.6,0c0.6,0,1.1,0,1.6-0.1c0.5,0,1.1-0.1,1.6-0.1
	c0.8,0,1.5,0.1,2.3,0.2c0.7,0.1,1.3,0.4,1.9,0.8c0.5,0.3,1,0.8,1.3,1.4c0.7,1.4,0.6,3.1-0.1,4.5c-0.4,0.6-0.9,1.2-1.5,1.6
	c-0.6,0.4-1.2,0.8-1.9,1c-0.6,0.2-1.2,0.4-1.9,0.5l1,1.2c0.4,0.5,0.8,1.1,1.3,1.7l1.6,2l1.6,2c0.5,0.6,1,1.2,1.4,1.7
	c0.4,0.5,0.8,0.9,1.1,1.2c-0.3,0-0.6-0.1-0.9-0.1h-1.7c-0.3,0-0.6,0-0.8,0.1l-1.3-1.8c-0.6-0.8-1.2-1.7-1.9-2.6
	c-0.7-0.9-1.4-1.8-2.2-2.7c-0.7-0.9-1.4-1.7-2-2.3h-1.1v2.1c0,1.3,0,2.5,0.1,3.7c0,1.2,0.1,2.4,0.2,3.6c-0.4,0-0.9-0.1-1.4-0.1
	c-0.5,0-1,0-1.4,0.1c0.1-1.2,0.1-2.4,0.2-3.6c0-1.2,0.1-2.5,0.1-3.7V473C86,471.7,86,470.5,85.9,469.3z M89.2,474.8
	c0.3,0,0.7,0,1.1,0c0.6,0,1.2-0.1,1.9-0.2c0.6-0.1,1.2-0.4,1.8-0.7c0.5-0.3,1-0.8,1.3-1.3c0.4-0.7,0.6-1.4,0.5-2.1
	c0-0.6-0.1-1.3-0.4-1.9c-0.3-0.5-0.6-0.9-1.1-1.2c-0.4-0.3-0.9-0.5-1.4-0.6c-0.5-0.1-1-0.2-1.5-0.2c-0.7,0-1.2,0-1.7,0
	c-0.4,0-0.8,0.1-1.1,0.1l-0.1,3.1c0,1-0.1,2.1-0.1,3.1v1.6C88.7,474.7,89,474.7,89.2,474.8z"/>
<path class="st1" d="M103.6,482.6c0.3,0.4,0.6,0.7,1,1c0.4,0.3,0.9,0.5,1.3,0.7c0.5,0.2,1.1,0.3,1.7,0.3c0.6,0,1.2-0.1,1.7-0.3
	c1-0.4,1.8-1.2,2.1-2.2c0.2-0.5,0.3-1.1,0.3-1.6c0-0.8-0.2-1.5-0.7-2.1c-0.5-0.5-1-1-1.7-1.3c-0.7-0.4-1.4-0.7-2.2-1
	c-0.8-0.3-1.5-0.6-2.2-1.1c-0.7-0.4-1.2-1-1.7-1.7c-0.5-0.8-0.7-1.7-0.7-2.7c0-0.8,0.1-1.5,0.4-2.2c0.3-0.7,0.7-1.2,1.3-1.7
	c0.6-0.5,1.2-0.9,2-1.1c0.8-0.3,1.7-0.4,2.6-0.4c0.8,0,1.6,0.1,2.4,0.3c0.7,0.2,1.3,0.6,1.9,1c-0.2,0.3-0.3,0.7-0.4,1
	c-0.1,0.4-0.2,0.8-0.3,1.4H112c-0.1-0.3-0.2-0.6-0.4-0.9c-0.2-0.3-0.4-0.6-0.7-0.9c-0.3-0.3-0.6-0.5-1-0.7c-0.4-0.2-0.9-0.3-1.4-0.3
	c-0.5,0-1,0.1-1.5,0.3c-0.4,0.2-0.8,0.4-1.2,0.7c-0.3,0.3-0.6,0.7-0.8,1.1c-0.2,0.5-0.3,0.9-0.3,1.4c0,0.8,0.2,1.5,0.7,2.1
	c0.5,0.5,1,1,1.7,1.3c0.7,0.4,1.4,0.7,2.2,1c0.7,0.2,1.5,0.6,2.1,0.9c0.7,0.4,1.2,0.9,1.7,1.6c0.5,0.8,0.7,1.6,0.7,2.5
	c0,0.9-0.2,1.7-0.5,2.5c-0.3,0.8-0.8,1.5-1.4,2.1c-0.6,0.6-1.4,1.1-2.2,1.3c-1,0.3-2,0.5-3,0.5c-1,0-2-0.1-2.9-0.5
	c-0.7-0.3-1.3-0.6-1.9-1.1c0.2-0.4,0.3-0.8,0.4-1.2c0.1-0.4,0.1-0.8,0.2-1.3h0.3C103.1,482,103.3,482.3,103.6,482.6z"/>
<path class="st1" d="M117.9,469.3c0-1.2-0.1-2.5-0.2-3.7l0.7,0.1c0.5,0.1,0.9,0.1,1.4,0l0.7-0.1c-0.1,1.3-0.1,2.5-0.2,3.7
	c0,1.2-0.1,2.5-0.1,3.7v4.9c0,1.3,0,2.5,0.1,3.7c0,1.2,0.1,2.4,0.2,3.6c-0.4,0-0.9-0.1-1.4-0.1s-1,0-1.4,0.1
	c0.1-1.2,0.1-2.4,0.2-3.6c0-1.2,0.1-2.5,0.1-3.7V473C118,471.7,118,470.5,117.9,469.3z"/>
<path class="st1" d="M129.9,467.1h-1.6c-0.5,0-1.1,0-1.6,0.1l-1.6,0.1c-0.5,0-1,0.1-1.3,0.1c0.1-0.3,0.1-0.6,0.1-0.9
	c0-0.3-0.1-0.6-0.1-0.9l3.7,0.1c1.2,0,2.4,0,3.7,0c1.3,0,2.5,0,3.7,0l3.7-0.1c-0.1,0.3-0.1,0.6-0.1,0.9c0,0.3,0.1,0.6,0.1,0.9
	c-0.4-0.1-0.8-0.1-1.3-0.1l-1.6-0.1c-0.5,0-1.1,0-1.6-0.1h-1.6c-0.1,2-0.1,4-0.1,6v4.9c0,1.3,0,2.5,0.1,3.7c0,1.2,0.1,2.4,0.2,3.6
	c-0.4,0-0.9-0.1-1.4-0.1c-0.5,0-1,0-1.4,0.1c0.1-1.2,0.1-2.4,0.2-3.6c0-1.2,0.1-2.5,0.1-3.7V473C130,471,129.9,469,129.9,467.1z"/>
<path class="st1" d="M146,475.8l-1.2-2.1l-1.4-2.4l-1.4-2.4l-1.2-2c-0.4-0.6-0.6-1.1-0.8-1.3l0.8,0.1c0.5,0.1,1.1,0.1,1.6,0l0.8-0.1
	c0.9,1.7,1.7,3.3,2.6,4.9c0.9,1.6,1.8,3.3,2.8,5c0.4-0.7,0.9-1.5,1.4-2.3s1-1.7,1.4-2.5c0.5-0.9,0.9-1.7,1.4-2.6
	c0.4-0.9,0.9-1.7,1.2-2.5c0.7,0.2,1.5,0.2,2.2,0c-0.9,1.4-1.7,2.7-2.5,3.8c-0.7,1.1-1.4,2.2-1.9,3.1c-0.6,0.9-1,1.7-1.5,2.5
	c-0.4,0.7-0.8,1.4-1.1,2c0,0.7,0,1.5,0,2.3c0,0.8,0,1.6,0,2.4c0,0.8,0,1.5,0.1,2.2c0,0.7,0.1,1.2,0.1,1.6c-0.4,0-0.9-0.1-1.4-0.1
	c-0.5,0-1,0-1.4,0.1c0.1-1,0.2-2.2,0.2-3.6s0-2.9,0-4.5L146,475.8z"/>
<path class="st1" d="M166.7,471.1c0.5-1.2,1.3-2.3,2.2-3.2c1-0.9,2.1-1.6,3.4-2c2.8-0.9,5.9-0.9,8.7,0c1.3,0.4,2.4,1.1,3.4,2
	c1,0.9,1.7,2,2.2,3.2c1.1,2.8,1.1,5.9,0,8.7c-1,2.5-3.1,4.4-5.6,5.2c-2.8,0.9-5.9,0.9-8.7,0c-2.6-0.8-4.6-2.7-5.6-5.2
	C165.7,477,165.7,473.9,166.7,471.1z M184.1,471.4c-0.3-1.1-0.9-2-1.7-2.9c-0.7-0.7-1.6-1.3-2.5-1.7c-2-0.7-4.2-0.7-6.3,0
	c-1,0.4-1.8,0.9-2.5,1.7c-0.8,0.8-1.3,1.8-1.7,2.9c-0.8,2.7-0.8,5.6,0,8.3c0.3,1.1,0.9,2,1.7,2.9c0.7,0.7,1.6,1.3,2.5,1.7
	c2,0.7,4.2,0.7,6.3,0c1-0.4,1.8-0.9,2.5-1.7c0.8-0.8,1.3-1.8,1.7-2.9C184.9,476.9,184.9,474.1,184.1,471.4L184.1,471.4z"/>
<path class="st1" d="M191.5,469.3c0-1.2-0.1-2.5-0.2-3.7l2.6,0.1c0.9,0,1.7,0,2.6,0c0.9,0,1.7,0,2.6,0l2.9-0.1
	c-0.1,0.6-0.1,1.2,0,1.7c-0.5-0.1-1.1-0.1-1.9-0.2s-1.5-0.1-2.2-0.1l-2.2-0.1c-0.7,0-1.3,0-1.7,0c0,0.7,0,1.3,0,1.9
	c0,0.6,0,1.2,0,1.8c0,0.7,0,1.3,0,1.9c0,0.6,0,1.2,0,1.8c1.3,0,2.5,0,3.8-0.1c1.2,0,2.5-0.1,3.7-0.2c-0.2,0.6-0.2,1.2,0,1.7
	c-0.5-0.1-1-0.1-1.6-0.1l-1.9-0.1c-0.7,0-1.3,0-2,0h-1.9v2.4c0,1.3,0,2.5,0.1,3.7c0,1.2,0.1,2.4,0.2,3.6c-0.4,0-0.9-0.1-1.4-0.1
	c-0.5,0-1,0-1.4,0.1c0.1-1.2,0.1-2.4,0.2-3.6c0-1.2,0.1-2.5,0.1-3.7v-5C191.5,471.7,191.5,470.5,191.5,469.3z"/>
<path class="st1" d="M213.8,469.3c0-1.2-0.1-2.5-0.2-3.7l0.7,0.1c0.5,0.1,0.9,0.1,1.4,0l0.7-0.1c-0.1,1.3-0.1,2.5-0.2,3.7
	c0,1.2-0.1,2.5-0.1,3.7c0,2.4,0,4.5,0,6.3c0,1.8,0,3.4,0.1,4.8c1.3,0,2.6,0,3.9,0c1.3,0,2.7-0.1,4-0.3c-0.1,0.3-0.1,0.6-0.1,0.9
	c0,0.3,0.1,0.5,0.1,0.8c-0.9,0-1.8-0.1-2.6-0.1h-5.3c-0.9,0-1.7,0-2.7,0.1c0.1-1.2,0.1-2.4,0.2-3.6c0-1.2,0.1-2.5,0.1-3.7v-5
	C213.9,471.7,213.9,470.5,213.8,469.3z"/>
<path class="st1" d="M227.5,471.1c0.5-1.2,1.3-2.3,2.2-3.2c1-0.9,2.1-1.6,3.4-2c2.8-0.9,5.9-0.9,8.7,0c1.3,0.4,2.4,1.1,3.4,2
	c1,0.9,1.7,2,2.2,3.2c1.1,2.8,1.1,5.9,0,8.7c-1,2.5-3.1,4.4-5.6,5.2c-2.8,0.9-5.9,0.9-8.7,0c-2.6-0.8-4.6-2.7-5.6-5.2
	C226.4,477,226.4,473.9,227.5,471.1z M244.8,471.4c-0.3-1.1-0.9-2-1.7-2.9c-0.7-0.7-1.6-1.3-2.5-1.7c-1-0.4-2.1-0.6-3.2-0.5
	c-1.1,0-2.1,0.2-3.1,0.5c-1,0.4-1.8,0.9-2.5,1.7c-0.8,0.8-1.3,1.8-1.7,2.9c-0.8,2.7-0.8,5.6,0,8.3c0.3,1.1,0.9,2,1.7,2.9
	c0.7,0.7,1.6,1.3,2.5,1.7c1,0.4,2.1,0.6,3.1,0.5c1.1,0,2.1-0.2,3.2-0.5c1-0.4,1.8-0.9,2.5-1.7c0.8-0.8,1.3-1.8,1.7-2.9
	C245.6,476.9,245.6,474.1,244.8,471.4L244.8,471.4z"/>
<path class="st1" d="M261.4,477.9c-2.5-2.7-5-5.3-7.5-8c0,0.5,0,1.3-0.1,2.2c0,0.9,0,2.1,0,3.7c0,0.4,0,0.9,0,1.5c0,0.6,0,1.2,0,1.9
	c0,0.7,0,1.3,0,2s0,1.3,0.1,1.9s0,1.1,0.1,1.5c0,0.4,0,0.7,0.1,0.9c-0.3,0-0.7-0.1-1-0.1c-0.4,0-0.7,0-1.1,0.1
	c0-0.2,0.1-0.5,0.1-1.1c0-0.5,0.1-1.1,0.1-1.9s0.1-1.5,0.1-2.3c0-0.8,0.1-1.7,0.1-2.5c0-0.8,0.1-1.7,0.1-2.5c0-0.8,0-1.5,0-2.2
	c0-1.8,0-3.4,0-4.7c0-1.3,0-2.3-0.1-3h0.5l3.8,4.1c1.3,1.4,2.7,2.9,4,4.3l3.7,4c1.2,1.3,2.2,2.3,3.1,3.2v-3.9c0-2,0-4,0-5.9
	s-0.1-3.7-0.2-5.4c0.3,0.1,0.6,0.1,1,0.1c0.3,0,0.6-0.1,0.9-0.1c0,0.4-0.1,1.1-0.1,1.9c0,0.8-0.1,1.7-0.1,2.7c0,1-0.1,1.9-0.1,2.8
	c0,0.9,0,1.7,0,2.2v1.7c0,0.7,0,1.3,0,2c0,0.7,0,1.4,0,2.1c0,0.7,0,1.4,0,2s0,1.2,0,1.6v1h-0.4C266.2,483.1,263.9,480.5,261.4,477.9
	z"/>
<path class="st1" d="M274.6,469.3c0-1.2-0.1-2.5-0.2-3.7l2.2,0.1c0.7,0,1.4,0,2.2,0c0.7,0,1.5,0,2.2-0.1c0.7,0,1.4-0.1,2.2-0.1
	c1.5,0,2.9,0.2,4.3,0.7c1.1,0.4,2.1,1,2.9,1.9c0.8,0.9,1.4,1.9,1.7,3c0.4,1.3,0.5,2.6,0.5,4c0.1,1.7-0.3,3.3-1,4.8
	c-0.6,1.2-1.5,2.3-2.5,3.2c-1,0.8-2.2,1.4-3.4,1.7c-1.2,0.3-2.4,0.5-3.6,0.5c-0.7,0-1.3,0-1.9,0c-0.6,0-1.3,0-1.9,0h-1.9
	c-0.6,0-1.3,0-1.9,0.1c0.1-1.2,0.1-2.4,0.2-3.6c0-1.2,0.1-2.5,0.1-3.7v-5C274.7,471.7,274.6,470.5,274.6,469.3z M277.2,484
	c0.5,0.1,1.1,0.2,1.6,0.2c0.7,0,1.4,0.1,2.1,0.1c1.1,0,2.1-0.1,3.2-0.4c1-0.2,2-0.7,2.8-1.4c0.9-0.8,1.6-1.7,2-2.8
	c1-2.8,1.1-5.9,0.2-8.8c-0.3-1-0.9-1.9-1.7-2.5c-0.7-0.6-1.6-1.1-2.6-1.3c-1.1-0.2-2.2-0.4-3.3-0.4c-0.9,0-1.7,0-2.4,0.1
	c-0.8,0.1-1.4,0.1-2,0.2c-0.1,0.9-0.1,1.9-0.1,2.9c0,1,0,2,0,3.1v4.9C277,480,277.1,482.1,277.2,484L277.2,484z"/>
<path class="st1" d="M296.2,471.1c0.5-1.2,1.3-2.3,2.2-3.2c1-0.9,2.1-1.6,3.4-2c2.8-0.9,5.9-0.9,8.7,0c1.3,0.4,2.4,1.1,3.4,2
	c1,0.9,1.7,2,2.2,3.2c1.1,2.8,1.1,5.9,0,8.7c-1,2.5-3.1,4.4-5.6,5.2c-2.8,0.9-5.9,0.9-8.7,0c-2.6-0.8-4.6-2.7-5.6-5.2
	C295.2,477,295.2,473.9,296.2,471.1z M313.5,471.4c-0.3-1.1-0.9-2-1.7-2.9c-0.7-0.7-1.6-1.3-2.5-1.7c-1-0.4-2.1-0.6-3.2-0.5
	c-1.1,0-2.1,0.2-3.1,0.5c-1,0.4-1.8,0.9-2.5,1.7c-0.8,0.8-1.3,1.8-1.7,2.9c-0.8,2.7-0.8,5.6,0,8.3c0.3,1.1,0.9,2,1.7,2.9
	c0.7,0.7,1.6,1.3,2.5,1.7c1,0.4,2.1,0.6,3.1,0.5c1.1,0,2.1-0.2,3.2-0.5c1-0.4,1.8-0.9,2.5-1.7c0.8-0.8,1.3-1.8,1.7-2.9
	C314.3,476.9,314.3,474,313.5,471.4z"/>
<path class="st1" d="M330.2,477.9c-2.5-2.7-5-5.3-7.5-8c0,0.5,0,1.3-0.1,2.2c0,0.9,0,2.1,0,3.7c0,0.4,0,0.9,0,1.5c0,0.6,0,1.2,0,1.9
	c0,0.7,0,1.3,0,2s0,1.3,0.1,1.9c0,0.6,0,1.1,0.1,1.5s0,0.7,0.1,0.9c-0.3,0-0.7-0.1-1-0.1c-0.4,0-0.7,0-1.1,0.1
	c0-0.2,0.1-0.5,0.1-1.1c0-0.5,0.1-1.1,0.1-1.9s0.1-1.5,0.1-2.3c0-0.8,0.1-1.7,0.1-2.5c0-0.8,0.1-1.7,0.1-2.5c0-0.8,0-1.5,0-2.2
	c0-1.8,0-3.4,0-4.7c0-1.3,0-2.3,0-3h0.5l3.8,4.1c1.3,1.4,2.7,2.9,4,4.3l3.7,4c1.2,1.3,2.2,2.3,3.1,3.2v-3.9c0-2,0-4,0-5.9
	s-0.1-3.7-0.2-5.4c0.3,0.1,0.6,0.1,1,0.1c0.3,0,0.6-0.1,0.9-0.1c0,0.4-0.1,1.1-0.1,1.9c0,0.8-0.1,1.7-0.1,2.7c0,1-0.1,1.9-0.1,2.8
	c0,0.9-0.1,1.7-0.1,2.2v1.7c0,0.7,0,1.3,0,2c0,0.7,0,1.4,0,2.1c0,0.7,0,1.4,0,2s0,1.2,0,1.6v1h-0.4
	C335,483.1,332.7,480.5,330.2,477.9z"/>
<path class="st0" d="M223.8,513.2l3.2-4.5c1-1.5,2-2.8,2.8-4.1c0.9-1.3,1.6-2.3,2.1-3.2c0.4,0.1,0.8,0.2,1.2,0.2
	c0.4,0,0.7-0.1,1.1-0.2c-0.1,1.5-0.1,3.2-0.2,5.2c0,1.9-0.1,3.9-0.1,5.9v3.8c0.7,0,1.3,0,1.9-0.1c0.6-0.1,1.1-0.1,1.5-0.2
	c-0.2,0.7-0.2,1.5,0,2.3c-0.5-0.1-1-0.1-1.5-0.2c-0.6,0-1.2,0-1.9,0v1.5c0,0.9,0,1.8,0.1,2.8c0.1,1,0.1,1.7,0.1,2.3
	c-0.5,0-1-0.1-1.5-0.1c-0.5,0-1.1,0-1.5,0.1c0.1-0.6,0.1-1.3,0.2-2.3s0.1-1.9,0.1-2.7v-1.5h-2.3l-3.2,0c-1.1,0-2.1,0.1-3.1,0.1
	l-2.2,0.1v-0.6C221.7,516.2,222.7,514.7,223.8,513.2 M231.4,504.6c-0.5,0.7-1.1,1.5-1.8,2.6l-2.3,3.3c-0.8,1.1-1.5,2.2-2.2,3.2
	s-1.3,1.9-1.6,2.6h8.1L231.4,504.6L231.4,504.6L231.4,504.6z M204.6,523.6c0.6,0.3,1.2,0.4,1.8,0.4c1.2,0,2.3-0.3,3.2-1
	c0.9-0.7,1.7-1.7,2.2-2.7c0.6-1.2,1-2.5,1.2-3.8c0.3-1.4,0.4-2.8,0.4-4.2h-0.1c-0.5,1-1.3,1.8-2.2,2.4c-1,0.6-2.2,1-3.5,0.9
	c-1.8,0.1-3.6-0.5-4.9-1.8c-1.2-1.2-1.8-2.9-1.8-5.1c0-1,0.2-2,0.5-2.9c0.3-0.9,0.9-1.7,1.5-2.3c0.7-0.7,1.5-1.2,2.4-1.6
	c1-0.4,2.1-0.6,3.2-0.6c1,0,2,0.2,3,0.5c0.9,0.4,1.8,1,2.5,1.7c0.8,0.9,1.3,2,1.7,3.1c0.5,1.5,0.7,3.1,0.7,4.6
	c0,1.8-0.2,3.6-0.7,5.4c-0.4,1.6-1.1,3.1-2,4.4c-0.8,1.2-1.9,2.2-3.2,2.9c-1.3,0.7-2.9,1.1-4.4,1c-0.5,0-1.1,0-1.6-0.2
	c-0.4-0.1-0.7-0.2-1.1-0.3c-0.1-0.3-0.2-0.6-0.3-0.9c-0.1-0.3-0.2-0.6-0.4-0.9l0.2-0.1C203.5,523,204,523.3,204.6,523.6
	 M212.1,503.8c-0.8-1-2.1-1.5-3.4-1.5c-1.3,0-2.6,0.6-3.4,1.7c-0.9,1.4-1.4,3-1.3,4.6c0,2,0.4,3.4,1.1,4.3c0.8,0.9,1.9,1.4,3.1,1.3
	c0.8,0,1.5-0.2,2.1-0.6c0.6-0.4,1.1-0.9,1.5-1.5c0.4-0.6,0.8-1.3,1-2.1c0.2-0.8,0.3-1.6,0.3-2.4
	C213.4,506.3,212.9,504.9,212.1,503.8 M182.3,514.4c0.9-1.3,2.3-2.3,3.9-2.7v-0.2c-0.5-0.1-0.9-0.3-1.3-0.5c-0.5-0.3-0.9-0.6-1.2-1
	c-0.4-0.4-0.7-0.9-0.9-1.4c-0.2-0.6-0.4-1.2-0.3-1.8c0-0.7,0.2-1.4,0.5-2.1c0.3-0.7,0.8-1.3,1.3-1.7c0.6-0.5,1.3-0.9,2-1.2
	c0.9-0.3,1.8-0.5,2.7-0.5c1,0,2,0.1,3,0.4c0.7,0.2,1.4,0.6,2,1.1c0.5,0.4,0.9,1,1.2,1.6c0.3,0.6,0.4,1.3,0.4,1.9
	c0,1.1-0.3,2.2-1,3.1c-0.7,1-1.7,1.7-2.9,2v0.2c0.5,0.1,1,0.2,1.5,0.4c0.6,0.2,1.2,0.6,1.6,1c0.6,0.5,1,1.1,1.3,1.7
	c0.4,0.8,0.6,1.8,0.6,2.7c0,1.1-0.2,2.1-0.6,3.1c-0.4,0.9-0.9,1.7-1.7,2.4c-0.7,0.7-1.5,1.2-2.5,1.5c-1,0.3-2,0.5-3,0.5
	c-1,0-2.1-0.1-3-0.4c-0.9-0.2-1.7-0.7-2.5-1.3c-0.7-0.6-1.2-1.3-1.6-2.1c-0.4-0.9-0.6-1.9-0.6-2.9
	C181.2,516.9,181.6,515.5,182.3,514.4 M192.5,505c-0.1-0.5-0.4-1-0.7-1.4c-0.3-0.4-0.7-0.7-1.2-1c-1.1-0.5-2.3-0.5-3.4,0
	c-0.5,0.2-0.9,0.6-1.2,1c-0.3,0.4-0.5,0.9-0.7,1.4c-0.1,0.6-0.2,1.1-0.2,1.7c0,0.6,0.1,1.1,0.2,1.7c0.1,0.5,0.4,1,0.7,1.4
	c0.3,0.4,0.7,0.7,1.2,1c1.1,0.5,2.3,0.5,3.4,0c0.5-0.2,0.8-0.6,1.2-1c0.3-0.4,0.5-0.9,0.7-1.4c0.1-0.6,0.2-1.1,0.2-1.7
	C192.7,506.1,192.6,505.6,192.5,505 M193.2,515.7c-0.2-0.7-0.5-1.3-0.9-1.8c-1.3-1.6-3.5-2.1-5.4-1.2c-0.6,0.3-1.1,0.7-1.5,1.2
	c-0.4,0.5-0.7,1.2-0.9,1.8c-0.4,1.5-0.4,3.2,0,4.7c0.2,0.7,0.5,1.3,0.9,1.8c1.3,1.6,3.5,2.1,5.4,1.2c0.6-0.3,1.1-0.7,1.5-1.2
	c0.4-0.6,0.7-1.2,0.9-1.8C193.7,518.9,193.7,517.3,193.2,515.7 M166.7,505.7c-0.2-0.5-0.6-0.8-1-1.1v-0.2c1.3-0.5,2.7-1.1,4-1.7
	s2.7-1.3,3.9-1.9l0.2,0.2c-0.1,1.5-0.2,3-0.2,4.5c0,1.5-0.1,3-0.1,4.5v5.8c0,1.5,0,3,0.1,4.5s0.1,2.9,0.2,4.3
	c-0.3,0-0.5-0.1-0.8-0.1h-1.5c-0.3,0-0.5,0-0.8,0.1c0.1-1.4,0.2-2.9,0.2-4.3c0-1.5,0.1-2.9,0.1-4.5v-12.3L166.7,505.7z M143,502.5
	h-1.9c-0.7,0-1.3,0-2,0.1s-1.3,0.1-1.9,0.1c-0.6,0-1.2,0.1-1.6,0.2c0.1-0.4,0.2-0.7,0.2-1.1c0-0.4-0.1-0.7-0.2-1.1l4.5,0.1
	c1.5,0,2.9,0,4.5,0c1.5,0,3,0,4.5,0l4.5-0.1c-0.1,0.4-0.2,0.7-0.2,1.1c0,0.4,0.1,0.7,0.2,1.1c-0.5-0.1-1-0.1-1.6-0.2
	c-0.6,0-1.3-0.1-1.9-0.1c-0.7,0-1.3-0.1-2-0.1H146c-0.1,2.4-0.1,4.8-0.1,7.2v6c0,1.5,0,3,0.1,4.5s0.1,2.9,0.2,4.4
	c-0.5,0-1.1-0.1-1.7-0.1c-0.6,0-1.2,0-1.7,0.1c0.1-1.4,0.1-2.9,0.2-4.4s0.1-3,0.1-4.5v-6C143.1,507.3,143.1,504.9,143,502.5
	 M119.5,521.3c0.3,0.4,0.7,0.8,1.1,1.2c1,0.8,2.3,1.2,3.6,1.2c0.7,0,1.4-0.1,2.1-0.4c0.6-0.2,1.1-0.6,1.6-1.1c0.4-0.5,0.8-1,1-1.6
	c0.2-0.6,0.3-1.3,0.3-2c0-0.9-0.2-1.8-0.8-2.5c-0.6-0.6-1.2-1.2-2-1.6c-0.8-0.4-1.7-0.8-2.6-1.2c-0.9-0.3-1.8-0.8-2.6-1.3
	c-0.8-0.5-1.5-1.2-2-2c-0.6-1-0.9-2.1-0.8-3.3c0-0.9,0.2-1.8,0.5-2.7c0.3-0.8,0.9-1.5,1.5-2.1c0.7-0.6,1.5-1,2.4-1.3
	c1-0.3,2.1-0.5,3.1-0.5c1,0,1.9,0.1,2.9,0.4c0.8,0.3,1.6,0.7,2.3,1.2c-0.2,0.4-0.4,0.8-0.5,1.3c-0.1,0.4-0.3,1-0.4,1.7h-0.4
	c-0.1-0.4-0.3-0.7-0.5-1.1c-0.2-0.4-0.5-0.8-0.8-1.1c-0.4-0.3-0.8-0.6-1.2-0.8c-0.5-0.2-1.1-0.3-1.7-0.3c-0.6,0-1.2,0.1-1.8,0.3
	c-0.5,0.2-1,0.5-1.4,0.9c-0.4,0.4-0.7,0.9-0.9,1.4c-0.2,0.5-0.3,1.1-0.3,1.7c-0.1,0.9,0.2,1.8,0.8,2.6c0.6,0.6,1.3,1.2,2,1.6
	c0.8,0.4,1.7,0.8,2.6,1.1c0.9,0.3,1.8,0.7,2.6,1.2c0.8,0.5,1.5,1.1,2,1.9c0.6,0.9,0.9,2,0.8,3c0,1-0.2,2.1-0.6,3
	c-0.4,0.9-0.9,1.8-1.7,2.5c-0.8,0.7-1.7,1.3-2.7,1.6c-1.2,0.4-2.4,0.6-3.6,0.6c-1.2,0-2.4-0.2-3.5-0.6c-0.8-0.3-1.6-0.8-2.2-1.3
	c0.2-0.5,0.3-0.9,0.4-1.4c0.1-0.4,0.2-1,0.2-1.6h0.4C118.9,520.5,119.2,520.9,119.5,521.3 M100.6,505.1c-0.1-1.5-0.1-3-0.2-4.4
	l3.1,0.1c1,0,2.1,0,3.1,0s2.1,0,3.1,0l3.1-0.1c-0.1,0.3-0.1,0.7-0.1,1c0,0.3,0,0.7,0.1,1l-2-0.1l-2-0.1c-0.7,0-1.4-0.1-2.2-0.1
	c-0.8,0-1.8,0-2.9,0c0,0.7,0,1.4-0.1,2.1c0,0.7-0.1,1.4-0.1,2.3s0,1.8,0,2.6s0,1.5,0,1.9c1,0,1.9,0,2.7,0s1.5,0,2.2-0.1l1.9-0.1
	c0.6,0,1.1-0.1,1.6-0.1c-0.1,0.4-0.1,0.7-0.1,1.1c0,0.3,0,0.7,0.1,1c-0.6-0.1-1.3-0.1-2.1-0.2c-0.8,0-1.6-0.1-2.4-0.1h-2.3h-1.7
	c0,0.2,0,0.4,0,0.7s0,0.5,0,0.9v3.4c0,1.3,0,2.4,0,3.3c0,0.9,0,1.5,0,1.9h2.4c0.9,0,1.7,0,2.6-0.1c0.8-0.1,1.6-0.1,2.4-0.1
	c0.7,0,1.3-0.1,2-0.3c0,0.2-0.1,0.4-0.1,0.5c0,0.2,0,0.4,0,0.5c0,0.3,0,0.6,0.1,0.9c-1,0-2.1-0.1-3.1-0.1h-6.3c-1,0-2.1,0-3.2,0.1
	c0.1-1.5,0.1-2.9,0.2-4.4c0.1-1.5,0.1-3,0.1-4.5v-6C100.7,508.2,100.7,506.7,100.6,505.1"/>
<path class="st0" d="M85.1,515.2H-0.4c-0.7,0.2-1.4-0.3-1.6-1c-0.2-0.7,0.3-1.4,1-1.6c0.2,0,0.4,0,0.6,0h85.5c0.7,0.2,1.2,0.9,1,1.6
	C86,514.7,85.6,515.1,85.1,515.2z"/>
<path class="st0" d="M338.2,515.2h-85.5c-0.7,0-1.3-0.6-1.3-1.3c0-0.7,0.6-1.3,1.3-1.3h85.5c0.7,0,1.3,0.6,1.3,1.3
	C339.6,514.6,339,515.2,338.2,515.2z"/>
<path class="st0" d="M338.5,326.2H-0.6c-0.7,0-1.3-0.6-1.3-1.3s0.6-1.3,1.3-1.3h339.1c0.7,0,1.3,0.6,1.3,1.3
	S339.2,326.2,338.5,326.2z"/>
</svg>
